<svg width="169" height="102" viewBox="0 0 169 102" fill="none" xmlns="http://www.w3.org/2000/svg">
<path d="M88.74 87.86C88.74 88.74 88.3733 89.8033 87.64 91.05C86.9067 92.2967 86.1367 92.92 85.33 92.92C84.5967 92.92 83.9 92.81 83.24 92.59C82.58 92.2967 81.59 91.7833 80.27 91.05C75.65 88.3367 69.6 85.6967 62.12 83.13C58.82 82.03 54.8967 80.8933 50.35 79.72C45.8767 78.4733 42.3567 77.5567 39.79 76.97L40.56 91.16C40.6333 93.14 40.89 94.79 41.33 96.11C41.77 97.5033 41.99 98.3833 41.99 98.75C41.99 99.5567 41.5867 100.217 40.78 100.73C39.9733 101.317 39.13 101.61 38.25 101.61C37.15 101.61 36.4533 100.84 36.16 99.3C36.16 99.1533 36.05 98.4933 35.83 97.32C35.6833 96.1467 35.61 94.4967 35.61 92.37C35.61 90.9767 35.4633 88.0067 35.17 83.46C35.0967 81.92 35.0233 80.4533 34.95 79.06C34.8767 77.5933 34.84 76.31 34.84 75.21C34.62 74.99 34.3267 74.7333 33.96 74.44C33.6667 74.1467 33.41 73.7433 33.19 73.23C32.97 72.57 32.7867 71.8733 32.64 71.14C32.4933 70.4067 32.42 69.8567 32.42 69.49C32.42 68.9767 32.5667 68.5733 32.86 68.28C33.1533 67.9867 33.5933 67.6567 34.18 67.29C33.74 48.9567 33.52 38.47 33.52 35.83C33.52 33.4833 33.5567 31.32 33.63 29.34C33.7033 27.36 33.74 26.04 33.74 25.38C33.3 25.4533 31.98 25.6367 29.78 25.93C27.58 26.2233 25.82 26.5167 24.5 26.81C19.8067 27.91 16.25 28.9733 13.83 30C11.3367 30.9533 8.95333 32.0533 6.68 33.3C6.02 33.74 5.39667 34.1067 4.81 34.4C4.15 34.62 3.52667 34.73 2.94 34.73C2.35333 34.73 1.84 34.4733 1.4 33.96C0.959999 33.3733 0.739999 32.6767 0.739999 31.87C0.739999 30.4767 3.08667 28.8633 7.78 27.03C12.4733 25.1967 17.57 23.6933 23.07 22.52C26.15 21.86 30.0733 21.31 34.84 20.87C39.6067 20.3567 44.0433 20.1 48.15 20.1C55.19 20.1 61.1667 20.87 66.08 22.41C71.0667 23.95 74.8067 26.1133 77.3 28.9C79.8667 31.6867 81.15 34.8767 81.15 38.47C81.15 43.09 79.83 47.05 77.19 50.35C74.55 53.65 71.03 56.51 66.63 58.93C62.3033 61.35 56.4 64.1 48.92 67.18C47.0133 68.06 45.1067 68.8667 43.2 69.6C41.3667 70.3333 40.12 70.8467 39.46 71.14C39.46 71.58 39.4967 71.91 39.57 72.13C47.49 73.89 55.3 75.9067 63 78.18L65.31 78.84C73.3033 81.26 79.2067 83.1667 83.02 84.56C86.8333 85.88 88.74 86.98 88.74 87.86ZM75.65 38.47C75.65 36.05 74.5867 33.8133 72.46 31.76C70.3333 29.7067 67.1067 28.0567 62.78 26.81C58.5267 25.49 53.3567 24.83 47.27 24.83C42.7233 24.83 39.8633 24.9033 38.69 25.05C38.6167 25.5633 38.5067 26.7733 38.36 28.68C38.2867 30.5867 38.25 32.4933 38.25 34.4L38.69 52L39.13 65.64C39.79 65.5667 41.0733 65.2367 42.98 64.65C44.96 63.99 46.61 63.3667 47.93 62.78C57.2433 59.04 64.1733 55.3 68.72 51.56C73.34 47.7467 75.65 43.3833 75.65 38.47Z" fill="black"/>
<path d="M143.51 48.39C143.51 50.6633 142.703 51.91 141.09 52.13C139.037 52.35 134.16 53.3033 126.46 54.99C118.833 56.6033 113.223 57.8867 109.63 58.84C109.63 60.4533 109.63 63.8633 109.63 69.07C109.703 74.2033 109.813 78.5667 109.96 82.16C110.033 83.5533 110.18 85.0933 110.4 86.78C110.693 88.4667 110.877 89.6767 110.95 90.41C111.39 93.05 111.61 94.6267 111.61 95.14C111.61 95.9467 111.207 97.12 110.4 98.66C109.667 100.273 109.043 101.08 108.53 101.08C108.017 101.08 107.54 100.823 107.1 100.31C106.66 99.7967 106.367 99.1733 106.22 98.44C105.487 95.14 104.973 89.7867 104.68 82.38C104.313 73.36 104.13 66.32 104.13 61.26C103.69 61.3333 102.957 61.48 101.93 61.7C100.977 61.8467 100.133 61.9567 99.4 62.03C98.6667 62.03 97.8967 61.8467 97.09 61.48C96.2833 61.1133 95.88 60.6733 95.88 60.16C95.88 59.5733 96.0633 59.1333 96.43 58.84C96.87 58.5467 97.3467 58.3267 97.86 58.18C98.3733 57.96 98.74 57.8133 98.96 57.74C101.6 56.64 103.36 55.9433 104.24 55.65L103.36 31.12C97.9333 32 93.9367 32.44 91.37 32.44C88.51 32.44 86.53 31.7433 85.43 30.35C84.4033 28.9567 83.89 27.6733 83.89 26.5C83.89 25.84 84.3667 25.51 85.32 25.51C85.4667 25.51 86.31 25.7667 87.85 26.28C89.4633 26.7933 90.8567 27.05 92.03 27.05C94.3767 27.05 98.1167 26.6833 103.25 25.95C103.25 25.8033 103.287 25.2533 103.36 24.3C103.433 23.2733 103.763 22.3567 104.35 21.55C104.717 20.89 105.047 20.45 105.34 20.23C105.633 20.01 105.963 19.9 106.33 19.9C107.723 19.9 108.42 21.44 108.42 24.52C109.447 24.3 111.757 23.86 115.35 23.2C119.017 22.54 123.197 21.9167 127.89 21.33C132.583 20.7433 136.653 20.45 140.1 20.45C142.887 20.45 144.28 21 144.28 22.1C144.28 22.98 143.95 24.1167 143.29 25.51C142.703 26.9033 142.007 27.6 141.2 27.6C140.907 27.6 140.613 27.4533 140.32 27.16C140.027 26.7933 139.807 26.5733 139.66 26.5C139 26.2067 138.047 26.06 136.8 26.06C134.527 26.06 129.98 26.5367 123.16 27.49C116.413 28.4433 111.537 29.25 108.53 29.91L109.3 53.78C113.26 52.7533 119.347 51.36 127.56 49.6C135.773 47.84 140.577 46.96 141.97 46.96C142.557 46.96 142.96 47.07 143.18 47.29C143.4 47.4367 143.51 47.8033 143.51 48.39Z" fill="black"/>
</svg>
